<svg width="178" height="30" viewBox="0 0 178 30" fill="none" xmlns="http://www.w3.org/2000/svg">
<g clip-path="url(#clip0_1257_4033)">
<path d="M8.9045 22.8426C8.79891 23.0834 8.69592 23.3255 8.58693 23.5647C8.49953 23.7566 8.40686 23.9462 8.31291 24.135C8.20273 24.3564 8.08479 24.574 7.97724 24.7966C7.85927 25.0409 7.75082 25.2897 7.63552 25.5352C7.40818 26.0193 7.1825 26.5043 6.94945 26.9857C6.74763 27.4026 6.54484 27.8195 6.3275 28.2284C6.06347 28.7252 5.73428 29.1783 5.28797 29.5268C5.02532 29.7319 4.73738 29.9083 4.37715 29.8968C4.29262 29.8941 4.20552 29.9451 4.12212 29.9387C3.8974 29.9215 3.67607 29.876 3.44729 29.8888C3.3701 29.8931 3.29097 29.8274 3.20986 29.8034C2.70852 29.6546 2.22882 29.4549 1.77094 29.2025C1.60602 29.1116 1.44021 29.0223 1.2743 28.9332C0.981592 28.776 0.73579 28.5546 0.498575 28.3299C0.331214 28.1713 0.209742 27.9628 0.141981 27.738C0.081552 27.5376 0.0249566 27.3313 0.00646849 27.1241C-0.0155102 26.8778 0.0184499 26.6303 0.109429 26.3942C0.139954 26.3149 0.153052 26.2286 0.170754 26.1449C0.294534 25.5591 0.613088 25.0554 0.857097 24.5204C0.986543 24.2366 1.12316 23.9561 1.2583 23.6749C1.41532 23.3482 1.57409 23.0224 1.73241 22.6963C1.92624 22.2971 2.12206 21.8988 2.31392 21.4987C2.49311 21.125 2.66657 20.7485 2.8457 20.3748C2.98664 20.0808 3.13566 19.7906 3.27531 19.4959C3.5491 18.9183 3.81836 18.3385 4.09069 17.7601C4.15166 17.6306 4.21792 17.5037 4.28117 17.3752C4.41616 17.1012 4.55311 16.828 4.68498 16.5524C4.87981 16.1453 5.06986 15.7358 5.26392 15.3283C5.43685 14.9652 5.61048 14.6023 5.78737 14.2411C6.0108 13.7848 6.24032 13.3315 6.46258 12.8746C6.64596 12.4976 6.82098 12.1166 7.00261 11.7388C7.21346 11.3002 7.42823 10.8635 7.63991 10.4253C7.84883 9.99283 8.05693 9.55997 8.26353 9.1264C8.34437 8.95675 8.41823 8.78378 8.49867 8.61392C8.66237 8.26824 8.82987 7.92434 8.99303 7.5784C9.16118 7.22188 9.32219 6.86195 9.49413 6.50729C9.56963 6.35157 9.67237 6.20908 9.7486 6.05366C9.84567 5.85578 9.92719 5.65033 10.0177 5.44917C10.0959 5.27522 10.1733 5.1007 10.2581 4.92992C10.4878 4.46737 10.7246 4.00831 10.9519 3.54459C11.0773 3.2886 11.1868 3.02486 11.3079 2.76666C11.4622 2.43752 11.6007 2.09873 11.783 1.78551C11.9994 1.41361 12.2502 1.06215 12.5932 0.786638C12.8879 0.549993 13.2031 0.342988 13.5525 0.207096C13.7467 0.131556 13.9523 0.0726672 14.1699 0.0412981C14.4217 0.00498695 14.6679 0.0351325 14.9154 0.0123753C15.2105 -0.0147651 15.4858 0.0642459 15.7663 0.156327C16.0276 0.242099 16.2712 0.356448 16.4911 0.508323C16.9355 0.815228 17.3312 1.17745 17.5867 1.66544C17.7724 2.0202 17.9544 2.37707 18.1307 2.73655C18.3634 3.21072 18.589 3.68836 18.8176 4.1645C18.9657 4.47292 19.1114 4.78252 19.2626 5.08941C19.4323 5.43397 19.6114 5.774 19.7785 6.11983C19.9567 6.48873 20.1238 6.86298 20.2992 7.23328C20.4652 7.58365 20.6357 7.93188 20.804 8.28114C20.9821 8.65073 21.1594 9.02074 21.3382 9.39C21.4779 9.67843 21.6207 9.96537 21.7599 10.2541C21.9723 10.6949 22.1826 11.1368 22.3942 11.578C22.6332 12.0765 22.8721 12.575 23.1121 13.073C23.2351 13.3282 23.361 13.5819 23.4846 13.8368C23.6719 14.2231 23.8591 14.6093 24.0448 14.9964C24.1801 15.2787 24.3113 15.5629 24.4469 15.8451C24.6618 16.2921 24.8793 16.7378 25.0948 17.1846C25.2564 17.5198 25.4163 17.8559 25.5775 18.1913C25.7968 18.6477 26.0166 19.104 26.2363 19.5602C26.5312 20.1727 26.8261 20.7852 27.1213 21.3976C27.4608 22.1019 27.8029 22.8051 28.1395 23.5108C28.3508 23.9536 28.539 24.4081 28.7655 24.8429C28.9848 25.2639 29.1903 25.6876 29.3042 26.1497C29.3768 26.4443 29.4779 26.736 29.4676 27.0444C29.4527 27.4874 29.2997 27.8812 29.0252 28.231C28.7636 28.5643 28.4229 28.7994 28.0524 29.0163C27.995 29.0164 27.9509 29.0138 27.9192 29.0323C27.2572 29.4169 26.5696 29.7381 25.8021 29.8427C25.3341 29.9065 24.8703 29.8987 24.4455 29.6447C24.1547 29.4709 23.9257 29.2295 23.7184 28.968C23.2963 28.4354 23.0309 27.8142 22.7397 27.2083C22.3907 26.482 22.0451 25.7542 21.6983 25.0269C21.4659 24.5396 21.2349 24.0516 21.0015 23.5648C20.8646 23.2792 20.724 22.9953 20.5835 22.7073C20.4459 22.7073 20.3208 22.7073 20.1956 22.7073C16.5274 22.7074 12.8592 22.7075 9.19107 22.7077C9.1318 22.7077 9.07252 22.7097 9.01325 22.7095C8.92161 22.7093 8.90486 22.769 8.9045 22.8426ZM13.4602 13.3153C13.3996 13.4406 13.3395 13.5662 13.2782 13.6911C13.1137 14.0259 12.9453 14.3588 12.7846 14.6953C12.542 15.2032 12.3044 15.7136 12.0649 16.223C11.9159 16.5399 11.7673 16.857 11.6099 17.1925C13.688 17.1925 15.7452 17.1925 17.8072 17.1925C17.8088 17.1587 17.8212 17.1245 17.8101 17.1015C16.785 14.9637 15.758 12.8267 14.724 10.6747C14.698 10.7117 14.6788 10.7324 14.6671 10.7567C14.5437 11.0138 14.4219 11.2717 14.2989 11.529C14.1141 11.9159 13.9272 12.3018 13.7443 12.6895C13.6514 12.8864 13.5651 13.0865 13.4602 13.3153Z" fill="#F2F2F2"/>
<path d="M8.90128 22.8488C8.88915 22.7777 8.92161 22.7093 9.01325 22.7095C9.07252 22.7097 9.1318 22.7077 9.19107 22.7077C12.8592 22.7075 16.5274 22.7074 20.1956 22.7073C20.3208 22.7073 20.4459 22.7073 20.5835 22.7073C20.724 22.9953 20.8646 23.2792 21.0015 23.5648C21.2349 24.0516 21.4659 24.5396 21.6983 25.0269C22.0451 25.7542 22.3907 26.482 22.7397 27.2083C23.0309 27.8142 23.2963 28.4354 23.7184 28.968C23.9257 29.2295 24.1547 29.4709 24.4455 29.6447C24.8703 29.8987 25.3341 29.9065 25.8021 29.8427C26.5696 29.7381 27.2572 29.4169 27.9192 29.0323C27.9509 29.0138 27.995 29.0164 28.0382 29.0236C27.7375 29.2065 27.4349 29.3804 27.1258 29.5421C26.8478 29.6875 26.5405 29.7597 26.2466 29.8648C26.1123 29.9129 25.9644 29.9233 25.8224 29.9497C25.5025 30.0092 25.1868 30.0119 24.8665 29.9298C24.4883 29.8329 24.1984 29.6225 23.9208 29.3532C23.3837 28.832 23.0838 28.1743 22.7742 27.5174C22.6343 27.2205 22.4897 26.9258 22.3537 26.6271C22.2047 26.2997 22.0416 25.9781 21.883 25.6564C21.6449 25.1735 21.4183 24.6855 21.1861 24.2C20.9787 23.7664 20.7701 23.3334 20.5606 22.9008C20.5451 22.8687 20.519 22.8417 20.4725 22.7892C20.3742 22.7592 20.3012 22.7463 20.2282 22.7463C17.6549 22.7456 15.0816 22.7462 12.5083 22.7463C11.4552 22.7464 10.4022 22.745 9.34912 22.7481C9.27348 22.7483 9.19793 22.7793 9.12233 22.796C9.10309 22.7995 9.08385 22.803 9.04744 22.7922C9.01695 22.783 9.00362 22.7881 8.99029 22.7931C8.97003 22.808 8.93404 22.8315 8.90128 22.8488Z" fill="#F2F2F2"/>
<path d="M9.11672 22.796C9.17151 22.7766 9.27348 22.7483 9.34912 22.7481C10.4022 22.745 11.4552 22.7464 12.5083 22.7463C15.0816 22.7462 17.6549 22.7456 20.2282 22.7463C20.3012 22.7463 20.3742 22.7592 20.4595 22.7803C20.4127 22.7971 20.3536 22.802 20.2945 22.802C16.5843 22.802 12.8477 22.799 9.11672 22.796Z" fill="#F2F2F2"/>
<path d="M40.0673 13.9312C39.831 13.6136 39.6015 13.3111 39.3776 13.0046C39.1238 12.6573 38.8754 12.306 38.6234 11.9575C38.604 11.9307 38.5743 11.9114 38.5255 11.8668C38.5255 12.0564 38.5257 12.2104 38.5254 12.3643C38.5234 13.3088 38.5192 14.2533 38.5195 15.1978C38.5208 18.9537 38.5267 22.7096 38.5212 26.4654C38.5206 26.8736 38.4499 27.2813 38.4267 27.6901C38.4117 27.9523 38.3457 28.2003 38.2696 28.4478C38.1475 28.8451 37.9156 29.1663 37.5848 29.4156C37.2019 29.7042 36.7666 29.8451 36.2921 29.9082C35.8393 29.9685 35.387 30.0047 34.9321 29.9896C34.5018 29.9753 34.0654 29.957 33.652 29.8378C32.964 29.6392 32.417 29.2379 32.1337 28.5596C32.0326 28.3176 31.994 28.0452 31.9565 27.7824C31.9199 27.5253 31.9163 27.263 31.9068 27.0028C31.8892 26.5174 31.8578 26.0315 31.8669 25.5464C31.9534 20.9301 31.9124 16.3132 31.8897 11.6971C31.876 8.90251 31.8779 6.10786 31.8716 3.31329C31.8704 2.79653 31.896 2.27431 32.0049 1.76048C32.1502 1.07502 32.5729 0.628799 33.1798 0.331876C33.4883 0.180933 33.8277 0.151534 34.1607 0.0842716C34.6232 -0.00912882 35.0809 0.0290932 35.5403 0.00949346C35.7271 0.00152355 35.9151 0.0141425 36.1023 0.0225387C36.16 0.0251278 36.2171 0.0439938 36.2742 0.0567741C36.325 0.068141 36.3766 0.0958864 36.4257 0.0915133C36.7892 0.059101 37.1255 0.190766 37.4146 0.360785C37.7888 0.580825 38.1411 0.852865 38.4031 1.22022C38.8053 1.78417 39.2195 2.33962 39.6301 2.89752C39.9813 3.37455 40.3369 3.84833 40.6862 4.32664C40.9272 4.65658 41.1591 4.99314 41.3985 5.32428C41.6814 5.71567 41.9697 6.10313 42.2523 6.49475C42.4388 6.75319 42.6153 7.0188 42.8033 7.27614C43.128 7.72081 43.4597 8.16043 43.7856 8.60424C44.0921 9.02164 44.3933 9.44296 44.7 9.86029C45.0435 10.3279 45.394 10.7905 45.7352 11.2598C46.1161 11.7837 46.4891 12.3132 46.867 12.8392C47.0795 13.1349 47.2943 13.4289 47.5089 13.7231C47.9874 14.3788 48.4671 15.0336 48.9451 15.6897C49.4682 16.4076 49.9896 17.1266 50.5125 17.8446C50.6254 17.9996 50.7414 18.1524 50.8902 18.3521C50.8978 18.2317 50.906 18.1618 50.9061 18.0919C50.9072 16.8174 50.9073 15.5429 50.9076 14.2684C50.9085 11.1196 50.9095 7.97082 50.9101 4.82201C50.9102 4.19985 50.9003 3.57755 50.9111 2.9556C50.9155 2.69737 50.958 2.43934 50.9912 2.18226C51.0111 2.02837 51.0386 1.8745 51.0763 1.72406C51.2479 1.04096 51.6758 0.589431 52.3221 0.316051C52.5001 0.240776 52.675 0.16731 52.862 0.123713C52.9409 0.105315 53.0238 0.104483 53.1039 0.0904603C53.1816 0.0768708 53.2581 0.056551 53.3352 0.0392836C53.3702 0.0314188 53.4054 0.0170927 53.4405 0.017055C53.9953 0.0164592 54.5502 0.00861623 55.1046 0.0234578C55.2999 0.0286869 55.4926 0.0980493 55.6884 0.124767C56.0211 0.170187 56.3096 0.314281 56.5772 0.505599C56.9795 0.793244 57.2364 1.16949 57.3528 1.66108C57.4176 1.93511 57.4437 2.21297 57.503 2.48623C57.5249 2.58718 57.5207 2.69471 57.5209 2.79925C57.5229 3.9538 57.5241 5.10835 57.5241 6.2629C57.5244 13.0329 57.5243 19.8029 57.5242 26.5728C57.5242 26.7528 57.5303 26.9331 57.5199 27.1125C57.5057 27.3575 57.4879 27.6032 57.4536 27.846C57.4258 28.0426 57.3822 28.2385 57.3265 28.4292C57.1887 28.9008 56.883 29.2505 56.4796 29.5138C56.1261 29.7445 55.7327 29.859 55.3106 29.9112C54.8654 29.9664 54.4205 30.001 53.9739 29.9889C53.64 29.9799 53.3067 29.9406 52.9739 29.9069C52.7978 29.8891 52.617 29.8753 52.4495 29.8237C51.9216 29.6611 51.4687 29.3922 51.1411 28.9232C50.8476 28.503 50.5119 28.1124 50.2056 27.7007C49.9231 27.3209 49.6581 26.928 49.3794 26.5453C49.1617 26.2463 48.9326 25.9556 48.7128 25.6582C48.4963 25.3655 48.2866 25.0677 48.0711 24.7743C47.8728 24.5044 47.671 24.2373 47.4704 23.9691C47.1228 23.5044 46.7725 23.0416 46.428 22.5746C46.1676 22.2215 45.9167 21.8614 45.6575 21.5074C45.3763 21.1234 45.0886 20.7442 44.8068 20.3606C44.3921 19.7962 43.9829 19.2277 43.5661 18.6648C43.1628 18.1202 42.7519 17.5813 42.3466 17.0383C42.209 16.8539 42.0797 16.6635 41.9442 16.4776C41.6509 16.0752 41.3563 15.6738 41.0617 15.2723C40.771 14.8762 40.48 14.4803 40.1885 14.0848C40.153 14.0366 40.114 13.9912 40.0673 13.9312Z" fill="#FF0000"/>
<path d="M67.149 12.1961C67.1489 17.095 67.1524 21.9714 67.1401 26.8479C67.1393 27.1519 67.1411 27.4702 67.0407 27.7708C67.0248 27.8185 67.0324 27.8742 67.0308 27.9262C67.0192 28.2926 66.8846 28.6207 66.6934 28.9232C66.4405 29.3234 66.0759 29.596 65.6272 29.7408C65.4192 29.808 65.1981 29.8408 64.9803 29.8698C64.6082 29.9195 64.2347 29.9622 63.8604 29.9908C63.7147 30.002 63.5654 29.968 63.418 29.9528C63.3153 29.9422 63.213 29.9274 63.1103 29.9164C62.818 29.8852 62.5157 29.8917 62.2357 29.8157C61.8364 29.7073 61.4466 29.5385 61.1636 29.221C60.9135 28.9405 60.7103 28.6251 60.6645 28.2321C60.633 27.9622 60.5774 27.6953 60.536 27.4265C60.527 27.368 60.5312 27.3072 60.5316 27.2475C60.5343 26.9037 60.5405 26.5598 60.5406 26.216C60.5411 18.6395 60.5411 11.063 60.5406 3.48657C60.5405 3.20256 60.5317 2.91854 60.5322 2.63454C60.5323 2.56183 60.552 2.48914 60.5629 2.41646C60.575 2.33564 60.6063 2.25224 60.5958 2.17453C60.5655 1.95295 60.6472 1.74549 60.6938 1.5428C60.7645 1.23512 60.9367 0.952751 61.1794 0.742494C61.4098 0.542944 61.6454 0.332551 61.9423 0.236907C62.237 0.141967 62.5386 0.0801258 62.8513 0.0401051C63.3442 -0.0229915 63.8334 0.0266409 64.3235 0.00946602C64.651 -0.00200994 64.9891 0.0263793 65.3074 0.101127C65.5562 0.15956 65.8112 0.237162 66.0377 0.383649C66.2459 0.518304 66.4358 0.671575 66.5948 0.856215C66.7512 1.03776 66.8526 1.25593 66.9256 1.4866C66.9888 1.68614 67.0217 1.88716 67.0354 2.09709C67.0551 2.39809 67.109 2.69679 67.1452 2.99685C67.1532 3.06328 67.1491 3.13128 67.1491 3.19856C67.1492 6.19025 67.1491 9.18194 67.149 12.1961Z" fill="#F2F2F2"/>
<path d="M86.3464 23.5295C86.346 24.8043 86.3542 26.0567 86.3393 27.309C86.3357 27.6144 86.2607 27.9195 86.2102 28.2234C86.1928 28.3282 86.1488 28.4284 86.1193 28.5314C85.952 29.1146 85.5506 29.4625 85.0051 29.6946C84.603 29.8657 84.1875 29.8992 83.7639 29.9211C83.6696 29.926 83.5751 29.9416 83.4827 29.9617C83.2243 30.0179 82.968 29.9885 82.7113 29.9515C82.6314 29.9401 82.5515 29.9169 82.4718 29.9178C81.9656 29.9235 81.4811 29.8262 81.0232 29.6117C80.735 29.4768 80.507 29.2621 80.3242 29.0069C80.0562 28.6326 79.9783 28.1961 79.9481 27.7477C79.779 25.238 79.884 22.7253 79.8738 20.2141C79.8548 15.5102 79.8682 10.8063 79.869 6.10234C79.869 5.99926 79.879 5.89618 79.8853 5.77534C79.8409 5.77115 79.7861 5.76149 79.7314 5.76148C77.4698 5.76075 75.2082 5.76168 72.9467 5.75878C72.8222 5.75862 72.6982 5.72372 72.5733 5.71189C72.4036 5.69581 72.2335 5.67945 72.0632 5.67544C71.5869 5.6642 71.1995 5.45991 70.8646 5.13778C70.5742 4.85843 70.4091 4.5193 70.3651 4.11697C70.3388 3.87686 70.2706 3.63984 70.2605 3.39979C70.2438 2.99935 70.2392 2.59626 70.2669 2.19686C70.2862 1.91766 70.3474 1.63675 70.4264 1.36733C70.5525 0.937641 70.8051 0.579041 71.193 0.351147C71.3853 0.238186 71.5976 0.142437 71.8467 0.145301C72.0785 0.147965 72.3109 0.0838961 72.5433 0.0514107C72.6674 0.0340578 72.7922 0.00844925 72.9168 0.00841308C79.7538 0.0063995 86.5909 0.00652783 93.4279 0.00847588C93.5301 0.00850455 93.6323 0.0341131 93.7345 0.0476723C93.8731 0.0660695 94.0134 0.0763817 94.15 0.104503C94.3732 0.150438 94.5974 0.163174 94.8193 0.251887C95.3856 0.478315 95.6531 0.93085 95.8492 1.46003C95.9369 1.69688 95.9491 1.94231 95.978 2.18894C96.0179 2.52861 96.0515 2.86631 96.0205 3.20752C95.9928 3.5136 95.9924 3.82717 95.92 4.12277C95.851 4.4045 95.7226 4.67569 95.5569 4.92203C95.3569 5.21944 95.0878 5.42801 94.7528 5.5558C94.5084 5.64905 94.257 5.68503 93.996 5.68528C93.8566 5.68541 93.7174 5.71649 93.5779 5.73122C93.4672 5.74291 93.3561 5.7593 93.2451 5.75943C91.0208 5.762 88.7966 5.76251 86.5723 5.76343C86.5063 5.76346 86.4404 5.76344 86.3464 5.76344C86.3464 11.6897 86.3464 17.5984 86.3464 23.5295Z" fill="#F2F2F2"/>
<path d="M115.443 9.04047C115.679 9.0214 115.911 9.11199 116.078 9.27886C116.245 9.44573 116.336 9.67697 116.316 9.91297C116.221 11.0882 115.901 12.9214 115.212 14.6736C115.169 14.7808 115.081 14.8619 114.969 14.8953L113.038 15.4745C112.945 15.5031 112.883 15.5866 112.883 15.6843C112.883 15.8059 112.981 15.9036 113.103 15.9036H114.024C114.31 15.9036 114.494 16.2088 114.346 16.4543C114.25 16.614 114.148 16.769 114.043 16.9216C113.995 16.9907 113.924 17.0407 113.842 17.067L111.512 17.7631C111.419 17.7917 111.357 17.8751 111.357 17.9728C111.357 18.0944 111.454 18.1922 111.576 18.1922H111.958C112.306 18.1922 112.459 18.6069 112.168 18.7977C110.545 19.8704 108.883 19.8299 107.816 19.5438C107.513 19.4628 107.244 19.3078 106.995 19.1171L105.249 20.8621C105.039 21.0719 104.696 21.0719 104.486 20.8621C104.276 20.6523 104.276 20.309 104.486 20.0993L106.394 18.1922L106.406 18.2041C106.423 18.1731 106.444 18.1445 106.471 18.1183L110.211 14.378C110.421 14.1682 110.421 13.8249 110.211 13.6151C110.001 13.4053 109.658 13.4053 109.448 13.6151L106.244 16.8143C106.032 17.0264 105.671 16.9192 105.647 16.6188C105.545 15.3506 105.869 13.6843 107.379 12.1753C109.553 10.0036 113.444 9.20258 115.441 9.04047H115.443Z" fill="#F2F2F2"/>
<path d="M115.597 26.0471C115.549 26.0411 115.517 26.1145 115.471 26.1019C115.481 26.0677 115.581 25.8716 115.607 25.8825C115.694 25.9101 115.824 25.9293 115.91 25.9702C115.86 25.9946 115.663 26.0334 115.597 26.0471Z" fill="#FF0000"/>
<path d="M96.3418 18.2768C96.2833 17.8723 96.2243 17.4865 96.1673 17.1004C96.1271 16.8276 96.0886 16.5546 96.0518 16.2813C96.0431 16.2164 96.0419 16.1502 96.0418 16.0845C96.0407 15.4629 96.0189 14.8402 96.0492 14.22C96.0653 13.8904 96.0552 13.5527 96.159 13.2271C96.2064 13.0782 96.1978 12.912 96.2201 12.7544C96.2594 12.4759 96.2926 12.196 96.3474 11.9204C96.4064 11.6232 96.4793 11.3281 96.5606 11.0361C96.6634 10.6666 96.7778 10.3002 96.8924 9.93409C97.0466 9.44184 97.2644 8.97605 97.4743 8.50559C97.696 8.00854 97.9502 7.53117 98.2253 7.06359C98.5981 6.4301 99.0198 5.83111 99.4742 5.25251C99.874 4.74342 100.311 4.27041 100.777 3.82461C101.328 3.29733 101.914 2.80819 102.55 2.38474C103.008 2.08009 103.472 1.7856 103.972 1.5513C104.417 1.34295 104.849 1.10613 105.301 0.916768C105.714 0.743971 106.142 0.603881 106.571 0.476315C106.86 0.390422 107.176 0.384863 107.457 0.281918C107.735 0.179883 108.029 0.204088 108.305 0.113954C108.426 0.0744982 108.565 0.0628714 108.692 0.0762497C109.028 0.111621 109.344 -0.0249623 109.685 0.00408587C110.128 0.041775 110.577 -0.00252361 111.023 0.00115688C111.194 0.00257281 111.366 0.0389156 111.537 0.0592384C111.573 0.0635237 111.609 0.0692176 111.646 0.0710816C111.87 0.082598 112.094 0.0915525 112.318 0.105604C112.36 0.108199 112.4 0.131359 112.441 0.142927C112.497 0.158617 112.556 0.191038 112.609 0.183476C112.809 0.154892 112.99 0.226845 113.177 0.270899C113.395 0.322115 113.618 0.353343 113.834 0.410196C114.069 0.471927 114.295 0.573953 114.532 0.61974C114.747 0.66127 114.946 0.737132 115.146 0.814867C115.401 0.913538 115.653 1.01793 115.904 1.12346C116.138 1.22155 116.378 1.3101 116.601 1.42803C117.087 1.68401 117.568 1.94898 118.042 2.22442C118.292 2.36952 118.531 2.53602 118.764 2.70794C119.055 2.92246 119.34 3.14453 119.615 3.37804C119.907 3.62541 120.192 3.88155 120.465 4.14978C120.691 4.37273 120.891 4.62167 121.109 4.85396C121.488 5.2591 121.82 5.70169 122.132 6.15851C122.425 6.58988 122.725 7.01884 122.956 7.49045C123.045 7.67107 123.156 7.84039 123.252 8.0174C123.321 8.14367 123.391 8.27036 123.444 8.40341C123.681 8.99555 123.921 9.58649 124.141 10.185C124.27 10.5371 124.372 10.8998 124.468 11.2628C124.546 11.5624 124.598 11.8691 124.659 12.1732C124.698 12.3633 124.737 12.5534 124.766 12.7451C124.795 12.942 124.811 13.1408 124.833 13.3387C124.85 13.4899 124.874 13.6407 124.881 13.7923C124.901 14.2064 124.926 14.6209 124.926 15.0353C124.926 15.4498 124.907 15.8649 124.881 16.2788C124.866 16.5298 124.825 16.7795 124.789 17.0289C124.735 17.3987 124.689 17.7703 124.616 18.1363C124.545 18.4904 124.464 18.8451 124.351 19.1876C124.131 19.8553 123.898 20.5197 123.645 21.1755C123.519 21.5031 123.324 21.804 123.18 22.1257C122.958 22.624 122.645 23.07 122.369 23.5366C122.203 23.8169 121.998 24.0751 121.801 24.3353C121.436 24.8147 121.041 25.2686 120.624 25.703C120.22 26.1227 119.798 26.5206 119.333 26.8726C118.946 27.166 118.57 27.4768 118.164 27.7406C117.739 28.0168 117.286 28.2519 116.839 28.4945C116.355 28.7572 115.853 28.9834 115.336 29.1706C114.95 29.3102 114.557 29.4349 114.163 29.5506C113.917 29.6229 113.653 29.6427 113.413 29.7304C113.228 29.7982 113.048 29.8105 112.859 29.8113C112.811 29.8115 112.763 29.8369 112.716 29.8521C112.674 29.8653 112.634 29.8909 112.592 29.8929C112.049 29.9193 111.511 30.0213 110.962 29.996C110.51 29.9752 110.056 29.9983 109.603 29.9851C109.402 29.9792 109.203 29.9273 109.002 29.9049C108.894 29.8929 108.776 29.9223 108.675 29.8919C108.463 29.8282 108.252 29.8086 108.032 29.8029C107.899 29.7995 107.765 29.7493 107.634 29.7122C107.281 29.6123 106.919 29.5455 106.564 29.4549C106.494 29.4371 106.427 29.4056 106.359 29.3807C105.919 29.22 105.473 29.0754 105.042 28.8949C104.479 28.6593 103.929 28.394 103.411 28.069C103.062 27.8503 102.704 27.6444 102.37 27.4047C101.962 27.1121 101.567 26.8013 101.183 26.4777C100.834 26.1826 100.493 25.8741 100.175 25.5456C99.8786 25.2391 99.6111 24.9035 99.3423 24.5715C99.1239 24.3017 98.9141 24.024 98.7158 23.7391C98.5211 23.4592 98.3333 23.1728 98.1649 22.8765C97.8971 22.4057 97.6281 21.9337 97.3964 21.4447C97.1513 20.9274 96.9229 20.4002 96.7668 19.8459C96.6724 19.5108 96.5663 19.179 96.4722 18.8438C96.4215 18.6631 96.3851 18.4784 96.3418 18.2768ZM103.13 5.29376C103.122 5.30611 103.114 5.31846 103.105 5.32847C103.105 5.32847 103.107 5.33027 103.074 5.32883C102.943 5.3453 102.874 5.42255 102.842 5.54802C102.916 5.59089 102.981 5.6285 103.077 5.68385C102.751 5.91951 102.448 6.13607 102.148 6.35762C102.082 6.4064 102.03 6.47286 101.958 6.55652C101.668 6.7773 101.37 6.98808 101.128 7.279C101.398 7.33389 101.425 7.405 101.269 7.6116C101.222 7.67399 101.172 7.73397 101.124 7.7943C101.187 7.85204 101.242 7.90273 101.298 7.95342C101.105 8.15723 100.922 8.34325 100.75 8.53766C100.711 8.58086 100.699 8.65226 100.687 8.71308C100.656 8.86851 100.642 9.02772 100.603 9.18099C100.54 9.43258 100.454 9.67847 100.394 9.93078C100.319 10.2496 100.261 10.5723 100.286 10.9036C100.29 10.9556 100.273 11.0092 100.266 11.062C100.249 11.0674 100.232 11.0728 100.215 11.0782C100.107 10.9278 99.9977 10.7775 99.8868 10.6242C99.765 10.7677 99.6621 10.8889 99.567 11.0009C99.6002 11.0825 99.636 11.1583 99.6623 11.2373C99.7886 11.6157 99.6798 11.9862 99.5906 12.3466C99.5222 12.6234 99.4665 12.891 99.5041 13.1693C99.5974 13.1693 99.6815 13.1693 99.7564 13.1693C99.9134 13.4291 99.7963 13.6782 99.7727 13.9246C99.7654 14.0007 99.7316 14.0799 99.6902 14.1452C99.6642 14.1863 99.6018 14.2269 99.5555 14.2272C99.4905 14.2277 99.4681 14.1665 99.4704 14.0992C99.4742 13.9854 99.4715 13.8714 99.4715 13.7407C99.3968 13.7792 99.3217 13.818 99.2377 13.8614C99.3003 14.0792 99.3544 14.2881 99.4216 14.4928C99.4524 14.5868 99.4474 14.6778 99.3838 14.7367C99.3276 14.7888 99.3118 14.8386 99.3078 14.9056C99.297 15.0862 99.2819 15.2666 99.2723 15.4472C99.2651 15.5845 99.2238 15.6076 99.0977 15.5414C99.0495 15.5161 98.9983 15.4964 98.9431 15.4717C98.9125 15.7376 98.9193 15.7535 99.0459 15.9218C99.0742 15.9595 99.0836 16.0134 99.0953 16.0614C99.1764 16.3968 99.2481 16.7348 99.338 17.0679C99.4283 17.4025 99.4896 17.7422 99.5316 18.0844C99.5476 18.2139 99.5803 18.3031 99.6943 18.3454C99.7311 18.2496 99.7662 18.1586 99.8174 18.0254C99.8749 18.1022 99.9225 18.1391 99.9332 18.1846C99.9811 18.3895 100.02 18.5966 100.059 18.8033C100.08 18.9094 100.115 19.0176 100.109 19.1228C100.091 19.4229 100.149 19.7098 100.222 19.9992C100.352 19.9018 100.427 19.9001 100.466 19.9945C100.518 20.1215 100.558 20.2542 100.616 20.3785C100.666 20.4851 100.627 20.5414 100.54 20.5754C100.587 20.7214 100.632 20.8622 100.681 21.012C100.725 20.9751 100.756 20.9487 100.799 20.9134C100.845 20.9495 100.908 20.9749 100.93 21.0203C101.037 21.2314 101.14 21.443 101.282 21.6345C101.321 21.6863 101.331 21.7722 101.326 21.8406C101.312 22.0484 101.424 22.2098 101.539 22.3506C101.655 22.4939 101.822 22.5978 101.971 22.7132C102.132 22.8375 102.309 22.9443 102.37 23.1587C102.379 23.1904 102.412 23.2178 102.439 23.2415C102.564 23.3515 102.694 23.4563 102.816 23.5693C102.911 23.6569 102.993 23.7582 103.088 23.8456C103.173 23.9238 103.267 23.9932 103.359 24.0632C103.642 24.2772 103.915 24.5058 104.212 24.6985C104.571 24.9321 104.951 25.1337 105.32 25.3525C105.362 25.377 105.416 25.4201 105.42 25.4592C105.432 25.5812 105.523 25.6071 105.609 25.6456C105.669 25.6723 105.728 25.6988 105.786 25.7302C106.109 25.9077 106.433 26.0837 106.753 26.2656C107.287 26.5685 107.86 26.7675 108.457 26.9004C108.587 26.9294 108.728 26.944 108.846 26.8865C108.846 26.772 108.915 26.8482 108.871 26.9004C108.675 26.8611 108.398 26.6321 108.23 26.3812C108.287 26.357 108.331 26.3212 108.373 26.3238C108.494 26.3312 108.617 26.3421 108.734 26.3729C109.162 26.4854 109.601 26.4566 110.034 26.4898C110.213 26.5035 110.396 26.4573 110.578 26.4448C110.723 26.4347 110.87 26.4402 111.015 26.4274C111.122 26.418 111.227 26.3875 111.334 26.3714C111.526 26.3424 111.722 26.3288 111.912 26.2878C112.27 26.2103 112.075 25.9728 112.462 25.8794C112.561 25.9374 112.747 26.4274 113.041 26.5096C113.384 26.4274 113.198 25.9377 113.567 25.8794C113.714 26.0581 113.833 26.0953 114.003 26.1527C113.952 26.2507 113.789 26.1977 113.754 26.3399C113.814 26.3462 113.862 26.3553 113.91 26.3555C114.088 26.3561 114.145 26.3088 114.173 26.1385C114.18 26.0963 114.174 26.0521 114.214 26.0084C114.323 26.0035 114.433 26.0103 114.539 25.991C114.708 25.9604 114.872 25.9083 115.04 25.8733C115.145 25.8514 115.253 25.8443 115.362 25.8663C115.366 25.9353 115.37 26.0042 115.376 26.1148C115.468 26.0725 115.527 26.0455 115.618 26.0127C115.671 26.0019 115.725 25.9912 115.811 25.9842C115.853 25.9783 115.898 25.9721 115.91 25.9703C116.044 26.0131 115.943 26.2536 116.166 26.1925C116.146 26.1402 116.13 26.0969 116.115 26.0567C116.174 26.0079 116.224 25.9655 116.294 25.9075C116.022 25.8596 115.782 25.8173 115.556 25.7443C115.715 25.6143 115.617 25.4233 115.642 25.2732C115.858 25.2826 116.046 25.2829 116.233 25.3016C116.365 25.3148 116.447 25.2546 116.537 25.172C116.658 25.0603 116.787 24.9524 116.927 24.8671C117.175 24.7166 117.453 24.6113 117.67 24.3888C117.788 24.4431 117.861 24.3669 117.919 24.2899C117.985 24.2037 117.922 24.1335 117.867 24.0429C117.873 24.0249 117.878 24.0069 117.902 23.9866C117.904 23.971 117.906 23.9553 117.914 23.9146C117.93 23.8949 117.945 23.8752 117.99 23.8498C118.062 23.7784 118.135 23.707 118.216 23.6266C118.176 23.6153 118.162 23.6055 118.15 23.6087C117.894 23.6822 117.639 23.7666 117.38 23.8281C117.222 23.8656 117.054 23.8961 116.915 23.7825C117.049 23.6741 117.14 23.4835 117.366 23.547C117.382 23.5512 117.412 23.5154 117.429 23.4935C117.47 23.443 117.512 23.3926 117.544 23.3369C117.661 23.1372 117.754 22.9195 117.893 22.7373C118.215 22.3161 118.557 21.9103 118.894 21.5008C119.184 21.1476 119.48 20.7985 119.772 20.4463C120.238 19.8837 120.589 19.2481 120.921 18.6025C120.987 18.4731 121.061 18.3736 121.198 18.3324C121.198 18.2736 121.194 18.2296 121.199 18.1865C121.213 18.0572 121.216 17.9245 121.25 17.8004C121.28 17.691 121.327 17.6859 121.432 17.7409C121.483 17.7681 121.536 17.793 121.626 17.8373C121.606 17.6338 121.609 17.471 121.571 17.3183C121.499 17.0262 121.502 16.7498 121.673 16.4569C121.747 16.507 121.817 16.5538 121.903 16.6119C121.895 16.4193 121.674 16.3021 121.753 16.0959C121.802 16.0878 121.85 16.0798 121.882 16.0745C121.945 15.9536 121.991 15.8363 122.064 15.7388C122.113 15.6718 122.128 15.6218 122.105 15.5423C122.045 15.3262 121.99 15.1084 121.944 14.8889C121.91 14.7266 121.89 14.5609 121.872 14.3959C121.863 14.3142 121.905 14.2486 121.992 14.2407C122.132 14.2279 122.132 14.1594 122.101 14.0449C122.061 13.9008 122.045 13.7502 122.033 13.5827C122.031 13.5711 122.029 13.5594 122.027 13.5478C122.013 13.5557 121.999 13.5635 121.961 13.5687C121.944 13.5677 121.928 13.5667 121.909 13.5365C121.894 13.4926 121.879 13.4487 121.852 13.3766C121.843 13.3271 121.835 13.2775 121.849 13.204C121.852 13.1614 121.868 13.1144 121.855 13.0769C121.798 12.9027 121.83 12.7392 121.881 12.5687C121.945 12.3487 121.914 12.1246 121.849 11.9081C121.825 11.8273 121.762 11.7751 121.634 11.7894C121.556 11.7788 121.535 11.7274 121.516 11.6559C121.454 11.4256 121.391 11.1942 121.308 10.9712C121.196 10.673 121.073 10.378 120.937 10.0898C120.849 9.90203 120.791 9.70215 120.665 9.52739C120.512 9.31642 120.371 9.088 120.277 8.84691C120.213 8.6814 120.111 8.56708 119.995 8.45035C119.97 8.42494 119.943 8.40079 119.922 8.37182C119.646 7.97768 119.334 7.61328 119.003 7.26349C118.532 6.76507 117.995 6.34381 117.441 5.9457C117.165 5.74748 116.861 5.58802 116.566 5.41729C116.461 5.35667 116.388 5.29343 116.468 5.13711C116.124 5.20887 115.857 5.06874 115.588 4.94053C115.461 4.88008 115.445 4.84652 115.517 4.72466C115.577 4.62238 115.559 4.54641 115.485 4.4716C115.444 4.43052 115.4 4.39201 115.353 4.35836C115.094 4.17227 114.834 3.98666 114.572 3.80373C114.432 3.7059 114.304 3.72474 114.182 3.85441C114.129 3.90996 114.078 3.96661 114.016 4.03324C113.837 3.82655 113.677 3.64162 113.51 3.44951C113.378 3.42887 113.246 3.51732 113.092 3.45386C112.887 3.36893 112.661 3.33616 112.445 3.27445C112.246 3.21723 112.049 3.19301 111.848 3.26828C111.794 3.28845 111.733 3.29037 111.68 3.31251C111.528 3.3765 111.307 3.29065 111.228 3.52155C111.219 3.54632 111.151 3.5576 111.108 3.56244C110.87 3.58976 110.632 3.61395 110.393 3.63684C110.368 3.63926 110.323 3.63312 110.318 3.61939C110.268 3.48843 110.16 3.5276 110.077 3.54603C109.894 3.58621 109.729 3.57964 109.588 3.42967C109.459 3.58461 109.294 3.60046 109.111 3.60843C108.763 3.62357 108.416 3.66945 108.057 3.6767C108.061 3.61361 108.066 3.55053 108.07 3.48566C108.07 3.48566 108.072 3.48661 108.098 3.48354C108.109 3.46371 108.119 3.44388 108.13 3.42405C108.106 3.41765 108.082 3.41124 108.029 3.38766C107.926 3.37969 107.823 3.37172 107.709 3.33699C107.682 3.30431 107.656 3.27162 107.629 3.23893C107.616 3.24697 107.603 3.255 107.59 3.26303C107.62 3.32272 107.65 3.38241 107.671 3.47239C107.649 3.51996 107.628 3.56753 107.576 3.61287C107.514 3.61436 107.459 3.62533 107.454 3.70437C107.454 3.70437 107.453 3.70369 107.427 3.70359C107.406 3.71798 107.386 3.73237 107.349 3.7666C107.339 3.79 107.329 3.81341 107.296 3.85573C107.305 3.89982 107.312 3.94426 107.322 3.9879C107.335 4.03991 107.35 4.09123 107.366 4.14369C107.366 4.14369 107.366 4.14189 107.332 4.14265C107.257 4.15809 107.181 4.17354 107.075 4.1878C107.055 4.18746 107.035 4.18712 106.988 4.1755C106.942 4.1628 106.896 4.15009 106.844 4.13881C106.844 4.13881 106.842 4.13394 106.826 4.10944C106.75 4.05213 106.676 4.01317 106.591 4.14251C106.556 4.15746 106.522 4.17242 106.477 4.16077C106.484 4.09087 106.491 4.02097 106.5 3.93871C106.43 3.94564 106.367 3.95804 106.323 4.0512C106.246 4.06724 106.169 4.08328 106.078 4.07988C106.039 4.09534 105.999 4.1108 105.929 4.14144C105.807 4.18128 105.687 4.22808 105.563 4.25985C104.749 4.46835 103.951 4.71433 103.223 5.20417C103.199 5.23184 103.175 5.25952 103.149 5.28467C103.149 5.28467 103.151 5.28622 103.13 5.29376ZM114.744 26.5145C114.85 26.4718 114.968 26.4456 115.059 26.3808C115.127 26.332 115.166 26.2366 115.204 26.1554C115.213 26.1364 115.166 26.0911 115.125 26.0275C114.979 26.1973 114.85 26.3476 114.744 26.5145Z" fill="#FF0000"/>
<path d="M103.105 5.32849C103.085 5.37999 103.033 5.43183 102.981 5.50388C103.097 5.53339 103.19 5.5571 103.279 5.57994C103.558 5.36011 103.888 5.28888 104.226 5.20418C104.287 5.36204 104.167 5.42917 104.071 5.4931C104.063 5.44021 104.091 5.40058 104.105 5.33586C103.867 5.40621 103.643 5.44643 103.43 5.60444C103.559 5.73704 103.524 5.88258 103.49 6.02076C103.462 6.1391 103.406 6.25095 103.363 6.36581C103.334 6.4446 103.305 6.52363 103.268 6.62184C103.351 6.63305 103.423 6.63784 103.478 6.64535C103.397 6.69461 103.306 6.81389 103.2 6.73106C103.104 6.65638 103.197 6.55324 103.219 6.47249C103.259 6.31987 103.334 6.17647 103.391 6.02775C103.408 5.98263 103.412 5.93263 103.384 5.87008C103.337 5.97793 103.29 6.08578 103.236 6.21034C103.104 6.10546 102.979 6.13679 102.845 6.21123C102.774 6.25108 102.679 6.25037 102.591 6.26897C102.435 6.51738 102.273 6.77456 102.112 7.03256C102.059 7.11789 102.002 7.20175 101.96 7.2927C101.893 7.4412 101.821 7.47318 101.65 7.34937C101.622 7.32916 101.604 7.29501 101.564 7.24622C101.754 7.01229 101.943 6.77881 102.147 6.52694C102.159 6.49741 102.157 6.48628 102.154 6.47515C102.144 6.48265 102.133 6.49016 102.122 6.49766C102.082 6.50691 102.038 6.51477 101.983 6.52691C102.027 6.47147 102.082 6.4064 102.148 6.35762C102.448 6.13607 102.751 5.91951 103.077 5.68385C102.981 5.6285 102.916 5.59089 102.842 5.54802C102.852 5.41628 102.962 5.31751 103.105 5.32849Z" fill="#FF0000"/>
<path d="M121.849 13.204C121.742 13.0691 121.794 12.9172 121.777 12.762C121.769 12.684 121.825 12.5919 121.714 12.5386C121.693 12.529 121.697 12.4723 121.688 12.4378C121.667 12.3625 121.648 12.2869 121.625 12.2124C121.583 12.0758 121.578 11.8605 121.665 11.7262C121.758 11.6902 121.825 11.8273 121.849 11.9081C121.914 12.1246 121.945 12.3487 121.881 12.5687C121.83 12.7392 121.798 12.9027 121.855 13.0769C121.868 13.1144 121.864 13.1494 121.849 13.204Z" fill="#FF0000"/>
<path d="M107.72 4.09782C107.703 4.23431 107.624 4.31247 107.456 4.35211C107.365 4.37366 107.273 4.38895 107.15 4.39307C106.993 4.37615 106.874 4.38837 106.749 4.38544C106.749 4.38544 106.745 4.36566 106.746 4.35332C106.745 4.33133 106.741 4.32855 106.74 4.31889C106.74 4.31889 106.743 4.31759 106.76 4.31641C106.877 4.31168 106.917 4.18041 106.971 4.08843C106.991 4.08878 107.036 4.0325 107.08 4.04454C107.205 4.10144 107.122 4.18737 107.19 4.12136C107.19 4.12136 107.271 4.02273 107.289 4.02257C107.413 4.00723 107.614 4.113 107.72 4.09782Z" fill="#FF0000"/>
<path d="M108.063 3.68963C107.908 3.74917 107.747 3.79578 107.594 3.83997C107.552 3.78675 107.519 3.74634 107.47 3.70471C107.459 3.62533 107.514 3.61436 107.603 3.62323C107.776 3.58487 107.923 3.53616 108.071 3.48744C108.066 3.55053 108.061 3.61361 108.063 3.68963Z" fill="#FF0000"/>
<path d="M106.482 4.17407C106.463 4.24555 106.444 4.30769 106.412 4.36081C106.377 4.41737 106.315 4.43218 106.268 4.38186C106.241 4.35319 106.222 4.29143 106.234 4.25738C106.258 4.19326 106.256 4.10719 106.301 4.03353C106.317 3.92682 106.43 3.94564 106.5 3.93871C106.491 4.02097 106.484 4.09087 106.482 4.17407Z" fill="#FF0000"/>
<path d="M108.285 3.48003C107.958 3.58447 107.631 3.68704 107.278 3.77015C107.3 3.65053 107.349 3.55038 107.431 3.40777C107.479 3.31738 107.493 3.26944 107.507 3.22149C107.735 3.23827 107.964 3.25504 108.228 3.31885C108.271 3.40397 108.279 3.44206 108.287 3.48015C108.287 3.48015 108.285 3.47815 108.285 3.48003Z" fill="#FF0000"/>
<path d="M107.717 4.09944C107.621 4.12868 107.508 4.12819 107.383 4.14311C107.35 4.09123 107.335 4.03991 107.322 3.9879C107.312 3.94426 107.286 3.90059 107.289 3.84704C107.352 3.90492 107.422 3.97149 107.483 4.05087C107.545 4.05623 107.63 4.07865 107.717 4.09944Z" fill="#FF0000"/>
<path d="M107.002 4.16439C106.962 4.27387 106.879 4.31674 106.762 4.31885C106.78 4.26334 106.811 4.20379 106.848 4.13274C106.896 4.12956 106.942 4.14381 107.002 4.16439Z" fill="#FF0000"/>
<path d="M107.715 3.35037C107.714 3.38653 107.708 3.4093 107.691 3.43708C107.65 3.38241 107.62 3.32272 107.59 3.26303C107.603 3.255 107.616 3.24697 107.629 3.23893C107.656 3.27162 107.682 3.30431 107.715 3.35037Z" fill="#FF0000"/>
<path d="M106.85 4.12137C106.794 4.13364 106.668 4.13615 106.586 4.1323C106.629 4.01533 106.784 4.0445 106.85 4.12137Z" fill="#FF0000"/>
<path d="M107.349 4.14227C107.298 4.20791 107.225 4.2564 107.115 4.20009C107.181 4.17354 107.257 4.15809 107.349 4.14227Z" fill="#FF0000"/>
<path d="M106.092 4.07743C106.064 4.09901 106.02 4.11379 105.971 4.12133C105.997 4.10154 106.045 4.08317 106.092 4.07743Z" fill="#FF0000"/>
<path d="M121.918 13.5486C121.835 13.5482 121.857 13.4397 121.852 13.3766C121.871 13.4044 121.902 13.4901 121.918 13.5486Z" fill="#FF0000"/>
<path d="M108.085 3.48507C108.068 3.46852 108.064 3.45043 108.059 3.41859C108.082 3.41124 108.106 3.41765 108.13 3.42405C108.119 3.44388 108.109 3.46371 108.085 3.48507Z" fill="#FF0000"/>
<path d="M103.215 5.19679C103.206 5.22643 103.184 5.25449 103.149 5.28458C103.158 5.25614 103.179 5.22567 103.215 5.19679Z" fill="#FF0000"/>
<path d="M117.898 23.995C117.88 23.9818 117.887 23.9571 117.909 23.9401C117.917 23.9514 117.909 23.9782 117.898 23.995Z" fill="#FF0000"/>
<path d="M115.996 26.285C115.999 26.283 115.993 26.287 115.996 26.285Z" fill="#FF0000"/>
<path d="M121.981 13.5653C121.987 13.5494 122.013 13.5557 122.027 13.5478C122.029 13.5594 122.039 13.5613 122.033 13.5827C122.02 13.5875 121.995 13.5782 121.981 13.5653Z" fill="#FF0000"/>
<path d="M103.138 5.28461C103.142 5.29244 103.131 5.30357 103.106 5.31753C103.102 5.30955 103.112 5.29873 103.138 5.28461Z" fill="#FF0000"/>
<path d="M104.085 6.34283C103.96 6.39557 103.835 6.4483 103.693 6.4917C103.676 6.48236 103.676 6.46195 103.676 6.44621C103.69 6.38253 103.703 6.33459 103.73 6.28034C103.81 6.15996 103.875 6.04588 103.94 5.93179C103.94 5.93179 103.944 5.93395 103.953 5.9306C103.97 5.91487 103.978 5.90249 103.986 5.89011C103.986 5.89011 103.988 5.89183 104.002 5.89055C104.036 5.86035 104.056 5.83142 104.076 5.8025C104.076 5.8025 104.079 5.80562 104.093 5.80568C104.356 5.71629 104.497 5.52719 104.596 5.30132C104.602 5.28765 104.571 5.25841 104.557 5.23641C104.566 5.10167 104.509 4.9719 104.592 4.85769C104.659 4.98305 104.736 4.90076 104.773 4.87106C104.871 4.7922 104.951 4.80274 105.042 4.87689C105.08 4.90701 105.126 4.91456 105.173 4.93401C105.172 5.01897 105.192 5.09693 105.301 5.09606C105.411 4.77718 105.742 4.72164 105.977 4.55682C106.073 4.48952 106.197 4.42088 106.355 4.52889C106.355 4.60256 106.352 4.69482 106.355 4.78687C106.361 4.93385 106.287 5.03361 106.162 5.10142C105.904 5.24132 105.648 5.38369 105.386 5.51508C105.17 5.62356 104.938 5.67953 104.655 5.65407C104.703 5.71595 104.731 5.75233 104.759 5.7883C104.856 5.91198 104.854 5.96093 104.747 6.06882C104.614 6.20336 104.465 6.30122 104.262 6.2938C104.227 6.29254 104.192 6.31441 104.136 6.32193C104.105 6.32645 104.095 6.33464 104.085 6.34283Z" fill="#FF0000"/>
<path d="M101.13 11.2143C101.13 11.2143 101.125 11.2334 101.106 11.2451C101.026 11.3421 100.961 11.425 100.906 11.5137C100.839 11.6188 100.781 11.7288 100.715 11.8449C100.685 11.7034 100.661 11.5878 100.637 11.4722C100.626 11.3814 100.615 11.2906 100.615 11.1707C100.659 11.0394 100.651 10.9418 100.593 10.8501C100.603 10.7605 100.614 10.671 100.643 10.5605C100.672 10.5164 100.681 10.4933 100.691 10.4702C100.703 10.4618 100.714 10.4516 100.743 10.4283C100.834 10.3843 100.906 10.3559 100.973 10.3181C101.052 10.2733 101.098 10.2059 101.08 10.1089C101.08 10.1089 101.091 10.1022 101.106 10.1021C101.272 10.0977 101.179 10.2738 101.267 10.3224C101.55 10.344 101.644 10.0806 101.833 9.9121C101.833 10.0146 101.833 10.0873 101.833 10.1599C101.825 10.1835 101.816 10.207 101.783 10.2391C101.74 10.2772 101.721 10.3067 101.703 10.3362C101.703 10.3362 101.699 10.3335 101.687 10.3394C101.529 10.5479 101.381 10.7492 101.239 10.9547C101.217 10.9864 101.223 11.0374 101.216 11.0795C101.216 11.0795 101.216 11.0788 101.201 11.0807C101.167 11.1265 101.149 11.1704 101.13 11.2143Z" fill="#FF0000"/>
<path d="M103.759 6.29489C103.746 6.34315 103.733 6.39141 103.71 6.46031C103.687 6.48957 103.678 6.49852 103.676 6.51366C103.613 6.5563 103.553 6.60185 103.476 6.64628C103.406 6.64057 103.351 6.63305 103.268 6.62184C103.305 6.52363 103.334 6.4446 103.363 6.36581C103.406 6.25095 103.462 6.1391 103.49 6.02076C103.524 5.88258 103.559 5.73704 103.43 5.60444C103.643 5.44643 103.867 5.40621 104.105 5.33586C104.091 5.40058 104.083 5.44081 104.075 5.49652C104.076 5.51199 104.075 5.53016 104.06 5.54072C103.99 5.57054 103.984 5.59877 104.03 5.63639C104.004 5.6719 103.977 5.70742 103.938 5.75891C103.923 5.77966 103.917 5.78641 103.918 5.7888C103.924 5.79728 103.931 5.80426 103.938 5.81181C103.927 5.84651 103.916 5.88122 103.885 5.93296C103.83 6.06497 103.794 6.17993 103.759 6.29489Z" fill="#FF0000"/>
<path d="M101.833 10.1599C101.82 10.0966 101.833 10.0146 101.833 9.9121C101.644 10.0806 101.55 10.344 101.267 10.3224C101.179 10.2738 101.247 10.1066 101.08 10.1089C101.13 10.0284 101.147 10.0306 101.283 10.0125C101.334 9.87437 101.388 9.73031 101.451 9.55935C101.566 9.61989 101.652 9.66507 101.733 9.7079C101.845 9.63589 101.962 9.55998 102.079 9.48396C102.144 9.44209 102.216 9.44443 102.252 9.50664C102.279 9.55436 102.284 9.63187 102.265 9.68412C102.244 9.7413 102.185 9.78468 102.14 9.83793C102.091 9.8232 102.046 9.80933 101.988 9.79182C101.943 9.91383 101.888 10.0369 101.833 10.1599Z" fill="#FF0000"/>
<path d="M99.9965 12.2905C100.009 12.2538 100.017 12.2324 100.031 12.217C100.081 12.1624 100.059 12.0292 100.168 12.0515C100.232 12.0645 100.281 12.1461 100.357 12.215C100.395 12.1991 100.458 12.1734 100.521 12.1475C100.594 12.1891 100.621 12.2445 100.586 12.3281C100.521 12.4813 100.468 12.6394 100.397 12.789C100.373 12.8393 100.304 12.9056 100.262 12.9011C100.201 12.8946 100.123 12.8432 100.094 12.7888C100.017 12.6414 99.9658 12.4814 99.9965 12.2905Z" fill="#FF0000"/>
<path d="M114.215 25.5542C114.31 25.519 114.391 25.483 114.474 25.4728C114.512 25.4681 114.575 25.5048 114.592 25.5396C114.608 25.5727 114.586 25.6313 114.567 25.6722C114.55 25.7091 114.513 25.7372 114.488 25.7666C114.405 25.7666 114.323 25.7798 114.247 25.7635C114.136 25.7395 114.125 25.677 114.215 25.5542Z" fill="#FF0000"/>
<path d="M114.975 4.63491C115.168 4.64063 115.227 4.78402 115.328 4.94053C115.246 4.95283 115.184 4.97954 115.132 4.96632C115.036 4.94226 114.944 4.90002 114.858 4.85233C114.839 4.84178 114.834 4.7678 114.851 4.73928C114.874 4.69924 114.923 4.6744 114.975 4.63491Z" fill="#FF0000"/>
<path d="M100.638 11.4728C100.67 11.5728 100.685 11.7034 100.715 11.8449C100.781 11.7288 100.839 11.6188 100.906 11.5137C100.961 11.425 101.031 11.3333 101.106 11.2451C101.122 11.2566 101.126 11.2833 101.12 11.2936C101.009 11.4939 100.899 11.6944 100.783 11.8916C100.765 11.9217 100.706 11.96 100.688 11.951C100.65 11.9324 100.602 11.8854 100.601 11.8486C100.597 11.7339 100.621 11.6036 100.638 11.4728Z" fill="#FF0000"/>
<path d="M101.553 9.4433C101.461 9.32447 101.467 9.14753 101.548 9.07637C101.6 9.03097 101.687 9.06437 101.694 9.14007C101.703 9.25818 101.697 9.376 101.553 9.4433Z" fill="#FF0000"/>
<path d="M101.217 11.0777C101.209 11.0396 101.205 10.9471 101.239 10.9547C101.315 10.7276 101.523 10.5301 101.687 10.3394C101.652 10.4264 101.609 10.5227 101.554 10.6108C101.455 10.7667 101.334 10.9203 101.217 11.0777Z" fill="#FF0000"/>
<path d="M104.594 5.24068C104.616 5.2514 104.648 5.28138 104.642 5.2954C104.543 5.52698 104.402 5.72086 104.137 5.81132C104.192 5.73597 104.259 5.65584 104.337 5.5892C104.447 5.49539 104.534 5.38766 104.594 5.24068Z" fill="#FF0000"/>
<path d="M105.173 4.93625C105.121 4.93219 105.081 4.9164 105.042 4.88608C104.947 4.81145 104.891 4.81016 104.788 4.88954C104.75 4.91943 104.644 4.98085 104.592 4.85769C104.632 4.82485 104.694 4.80361 104.734 4.78185C104.937 4.67154 105.042 4.72151 105.173 4.93625Z" fill="#FF0000"/>
<path d="M103.742 6.29417C103.766 6.17852 103.807 6.05613 103.866 5.92981C103.904 5.92441 103.925 5.92294 103.961 5.92106C103.904 6.04292 103.831 6.16517 103.742 6.29417Z" fill="#FF0000"/>
<path d="M101.08 10.1089C101.111 10.2 101.052 10.2733 100.973 10.3181C100.906 10.3559 100.829 10.394 100.743 10.4283C100.762 10.3879 100.798 10.3312 100.839 10.2949C100.907 10.2334 100.995 10.1726 101.08 10.1089Z" fill="#FF0000"/>
<path d="M106.749 4.38544C106.868 4.37322 107.011 4.37893 107.15 4.39307C107.033 4.47443 106.885 4.47718 106.749 4.38544Z" fill="#FF0000"/>
<path d="M100.593 10.8501C100.664 10.9325 100.667 11.0633 100.623 11.1775C100.512 11.1014 100.554 10.9631 100.593 10.8501Z" fill="#FF0000"/>
<path d="M101.13 11.2143C101.136 11.1763 101.161 11.0568 101.216 11.0795C101.212 11.1189 101.163 11.1674 101.13 11.2143Z" fill="#FF0000"/>
<path d="M104.115 5.81132C104.109 5.83954 104.087 5.86921 104.049 5.89911C104.055 5.87049 104.077 5.84163 104.115 5.81132Z" fill="#FF0000"/>
<path d="M101.716 10.3326C101.721 10.3067 101.74 10.2772 101.773 10.2463C101.768 10.2729 101.748 10.301 101.716 10.3326Z" fill="#FF0000"/>
<path d="M104.027 5.63576C103.972 5.60711 104.004 5.54705 104.071 5.52602C104.077 5.54782 104.044 5.60322 104.027 5.63576Z" fill="#FF0000"/>
<path d="M100.691 10.4702C100.695 10.4914 100.664 10.5316 100.643 10.5605C100.639 10.5406 100.669 10.4978 100.691 10.4702Z" fill="#FF0000"/>
<path d="M106.784 4.28592C106.794 4.29056 106.774 4.30617 106.773 4.33033C106.763 4.33513 106.747 4.32983 106.74 4.31889C106.738 4.31569 106.772 4.29721 106.784 4.28592Z" fill="#FF0000"/>
<path d="M103.676 6.51365C103.66 6.48864 103.658 6.46993 103.7 6.44893C103.718 6.44141 103.719 6.47357 103.72 6.48964C103.721 6.50571 103.696 6.51496 103.676 6.51365Z" fill="#FF0000"/>
<path d="M103.929 5.82233C103.918 5.82585 103.924 5.79728 103.918 5.7888C103.917 5.78641 103.919 5.77605 103.929 5.76746C103.938 5.7711 103.93 5.80377 103.929 5.82233Z" fill="#FF0000"/>
<path d="M104.026 5.89911C104.032 5.91068 104.018 5.92506 103.985 5.94301C103.979 5.9317 103.992 5.91682 104.026 5.89911Z" fill="#FF0000"/>
<path d="M104.071 6.33699C104.075 6.31856 104.124 6.30437 104.144 6.30777C104.147 6.32427 104.086 6.34233 104.071 6.33699Z" fill="#FF0000"/>
<path d="M102.122 6.49806C102.128 6.48562 102.144 6.48265 102.154 6.47515C102.157 6.48628 102.167 6.49813 102.16 6.51366C102.151 6.51806 102.127 6.503 102.122 6.49806Z" fill="#FF0000"/>
<path d="M137.598 22.5452C137.278 22.2108 136.967 21.8882 136.659 21.5636C136.064 20.9364 135.47 20.3076 134.874 19.6808C134.767 19.5679 134.653 19.4615 134.51 19.3209C134.51 19.4299 134.51 19.5061 134.51 19.5823C134.51 21.8682 134.512 24.1542 134.507 26.4401C134.506 26.6471 134.457 26.8539 134.432 27.0609C134.414 27.2108 134.401 27.3613 134.38 27.5107C134.351 27.7148 134.329 27.9209 134.282 28.1208C134.246 28.271 134.193 28.4234 134.116 28.5563C133.863 28.9919 133.482 29.2752 133.007 29.4354C132.802 29.5044 132.595 29.5466 132.378 29.5628C132.012 29.5901 131.648 29.6468 131.282 29.673C131.125 29.6842 130.965 29.6514 130.806 29.636C130.72 29.6276 130.635 29.6054 130.549 29.604C130.07 29.5958 129.601 29.532 129.173 29.3042C128.614 29.0068 128.261 28.5607 128.138 27.9209C128.094 27.6934 128.105 27.4601 128.035 27.2369C128.008 27.1489 128.016 27.0486 128.016 26.9539C128.018 23.1928 128.022 19.4317 128.023 15.6706C128.025 11.6026 128.023 7.53467 128.026 3.46672C128.027 3.08931 128.029 2.70815 128.08 2.33545C128.153 1.80454 128.343 1.30933 128.791 0.975811C129.042 0.789911 129.309 0.627082 129.631 0.553945C129.868 0.500215 130.104 0.479369 130.339 0.438646C130.841 0.351347 131.341 0.429354 131.842 0.401085C132.124 0.38513 132.418 0.42397 132.694 0.489872C132.932 0.546712 133.166 0.655076 133.378 0.780732C133.58 0.900496 133.78 1.04793 133.929 1.2266C134.144 1.48512 134.29 1.78855 134.326 2.13784C134.357 2.42826 134.421 2.71498 134.459 3.00482C134.486 3.21207 134.508 3.42176 134.508 3.6304C134.512 5.87252 134.51 8.11464 134.51 10.3568C134.51 10.4277 134.51 10.4986 134.51 10.6165C134.721 10.3984 134.9 10.2139 135.078 10.0283C135.379 9.71469 135.68 9.4017 135.979 9.08593C136.392 8.64821 136.802 8.20686 137.216 7.76972C137.396 7.5804 137.584 7.40002 137.765 7.21158C138.141 6.81839 138.514 6.42143 138.89 6.02819C139.142 5.76479 139.4 5.50695 139.652 5.24337C140.18 4.69112 140.706 4.1376 141.231 3.58289C141.58 3.21434 141.921 2.83857 142.274 2.47383C142.617 2.11919 142.971 1.77499 143.319 1.42517C143.446 1.29759 143.562 1.15777 143.697 1.0395C144.104 0.682581 144.515 0.329213 145.046 0.161199C145.277 0.0882521 145.507 0.00746936 145.755 0.0345187C145.918 0.0523562 146.086 0.0615706 146.241 0.110316C146.732 0.264918 147.173 0.512342 147.548 0.869371C147.833 1.14165 148.137 1.39834 148.398 1.69253C148.773 2.11486 149.131 2.55631 149.268 3.1268C149.273 3.14743 149.292 3.16682 149.292 3.18628C149.278 3.54591 149.355 3.92034 149.199 4.2588C149.073 4.53103 148.907 4.78797 148.734 5.03499C148.42 5.48603 148.01 5.84994 147.615 6.22865C146.808 7.00091 146.018 7.7895 145.22 8.571C144.48 9.2965 143.739 10.0216 142.999 10.7468C142.552 11.1839 142.109 11.6246 141.658 12.0568C141.323 12.3778 140.973 12.683 140.638 13.0045C140.373 13.2599 140.124 13.5334 139.861 13.7917C139.561 14.0865 139.251 14.3722 138.948 14.6643C138.83 14.7787 138.718 14.8999 138.595 15.0259C138.926 15.3421 139.248 15.6494 139.569 15.9576C139.892 16.2669 140.214 16.5767 140.535 16.8869C140.93 17.2674 141.323 17.6492 141.717 18.0291C142.068 18.3663 142.419 18.7026 142.771 19.0376C143.157 19.4044 143.544 19.77 143.932 20.1348C144.268 20.4512 144.61 20.762 144.942 21.0819C145.311 21.436 145.668 21.8013 146.037 22.1547C146.409 22.5104 146.792 22.8535 147.163 23.2096C147.439 23.4754 147.691 23.7676 147.978 24.0208C148.19 24.207 148.38 24.4115 148.567 24.6175C148.863 24.9426 149.116 25.2999 149.29 25.7096C149.383 25.9296 149.439 26.1591 149.457 26.3921C149.47 26.5691 149.448 26.7553 149.405 26.9285C149.308 27.322 149.117 27.6689 148.831 27.9618C148.715 28.0805 148.622 28.2234 148.5 28.3341C148.175 28.6284 147.851 28.9268 147.504 29.1935C147.239 29.3969 146.965 29.5999 146.634 29.6997C146.556 29.7233 146.487 29.7767 146.415 29.8176C146.391 29.8313 146.37 29.8567 146.345 29.8629C146.139 29.9128 145.933 29.962 145.726 30.0055C145.67 30.0172 145.608 30.0186 145.551 30.0082C145.166 29.9371 144.812 29.806 144.488 29.5687C144.044 29.2436 143.663 28.8599 143.291 28.4588C142.833 27.9631 142.358 27.4816 141.889 26.9953C141.38 26.4667 140.867 25.941 140.358 25.4114C140.077 25.1186 139.803 24.819 139.523 24.5247C139.21 24.195 138.896 23.866 138.579 23.54C138.258 23.2099 137.933 22.8838 137.598 22.5452Z" fill="#F2F2F2"/>
<path d="M171.678 1.86845C171.679 1.8445 171.651 1.79129 171.678 1.75805C171.839 1.7447 171.744 1.63034 171.776 1.56143C171.781 1.55145 171.721 1.53067 171.693 1.50535C171.749 1.26295 171.896 1.05463 172.065 0.882069C172.413 0.527937 172.842 0.316337 173.317 0.19369C173.449 0.159466 173.59 0.135847 173.726 0.140994C173.913 0.148098 174.088 0.100227 174.269 0.0752707C174.646 0.0232458 175.027 -0.00643751 175.401 0.119531C175.455 0.137932 175.516 0.144461 175.574 0.14513C176.048 0.150598 176.497 0.251469 176.892 0.522676C177.27 0.782846 177.618 1.07576 177.733 1.55221C177.791 1.79198 177.891 2.02414 177.874 2.27869C177.873 2.30718 177.868 2.34324 177.882 2.36375C177.969 2.4896 177.942 2.6303 177.942 2.7675C177.942 4.59979 177.941 6.43207 177.941 8.26436C177.941 10.8253 177.941 13.3863 177.942 15.9472C177.942 16.3514 177.947 16.7556 177.95 17.1598C177.95 17.1671 177.952 17.1752 177.95 17.1818C177.859 17.4445 177.909 17.7263 177.839 17.9922C177.827 18.0405 177.833 18.0937 177.831 18.1447C177.826 18.2335 177.883 18.3364 177.77 18.4014C177.758 18.4081 177.759 18.4427 177.759 18.4642C177.768 18.7818 177.672 19.0843 177.623 19.3934C177.597 19.5539 177.547 19.7104 177.509 19.869C177.492 19.9435 177.482 20.0202 177.46 20.0935C177.37 20.3977 177.279 20.7017 177.184 21.0041C177.097 21.2792 177.01 21.5546 176.91 21.8251C176.829 22.0451 176.734 22.2606 176.635 22.4732C176.48 22.8049 176.332 23.1415 176.152 23.4598C175.869 23.9611 175.59 24.466 175.232 24.9215C175.001 25.2159 174.775 25.5136 174.534 25.8011C174.203 26.1961 173.826 26.5419 173.465 26.9052C173.003 27.3692 172.466 27.7307 171.936 28.1C171.596 28.3375 171.204 28.5022 170.834 28.6965C170.682 28.7763 170.52 28.8394 170.372 28.9252C169.967 29.1594 169.516 29.2804 169.088 29.4555C168.937 29.5171 168.755 29.5074 168.61 29.5779C168.397 29.6818 168.146 29.5955 167.948 29.7359C167.728 29.7069 167.542 29.8753 167.314 29.836C167.199 29.8163 167.073 29.8663 166.952 29.8791C166.816 29.8934 166.678 29.9033 166.541 29.9113C166.42 29.9183 166.302 29.9175 166.179 29.9571C166.047 29.9995 165.894 29.9754 165.75 29.9817C165.545 29.9908 165.34 30.0085 165.135 30.0092C164.889 30.01 164.635 30.0338 164.4 29.9808C164.062 29.9044 163.718 29.9452 163.381 29.8824C163.219 29.8521 163.051 29.8494 162.886 29.8344C162.857 29.8317 162.824 29.838 162.799 29.8271C162.544 29.7183 162.282 29.6627 162.003 29.6491C161.844 29.6413 161.686 29.5633 161.531 29.5085C161.089 29.3528 160.64 29.2146 160.211 29.0293C159.626 28.7766 159.07 28.4641 158.55 28.0924C158.148 27.8044 157.743 27.519 157.354 27.2138C157.126 27.0352 156.927 26.8205 156.716 26.6214C156.615 26.5266 156.511 26.4347 156.417 26.3341C156.017 25.9087 155.63 25.4725 155.31 24.9821C155.031 24.554 154.723 24.1405 154.484 23.691C154.184 23.1278 153.938 22.536 153.675 21.9533C153.584 21.7498 153.506 21.5391 153.436 21.3272C153.344 21.0524 153.262 20.7743 153.183 20.4955C153.129 20.3008 153.085 20.1028 153.038 19.9059C152.929 19.4497 152.825 18.994 152.769 18.5257C152.746 18.3358 152.692 18.1447 152.677 17.9496C152.67 17.8624 152.655 17.7757 152.65 17.6884C152.633 17.3603 152.647 17.0277 152.597 16.7052C152.547 16.3896 152.56 16.0771 152.56 15.7638C152.558 11.5247 152.558 7.28563 152.564 3.04653C152.564 2.75776 152.616 2.46907 152.644 2.18034C152.655 2.06417 152.659 1.94695 152.678 1.83197C152.746 1.4066 152.965 1.05144 153.265 0.762031C153.481 0.553939 153.741 0.397551 154.043 0.299178C154.366 0.194094 154.687 0.147726 155.02 0.141577C155.057 0.140902 155.095 0.139606 155.129 0.128715C155.591 -0.0175558 156.051 0.00938517 156.512 0.13168C156.554 0.142837 156.6 0.146326 156.644 0.143811C156.892 0.129501 157.132 0.173933 157.372 0.227213C157.997 0.365709 158.486 0.700019 158.783 1.26618C158.91 1.50892 158.979 1.78512 159.007 2.06771C159.04 2.40171 159.098 2.73323 159.142 3.06613C159.15 3.12398 159.148 3.18332 159.148 3.24198C159.148 7.69452 159.145 12.1471 159.154 16.5996C159.155 16.8558 159.152 17.1193 159.221 17.3775C159.267 17.5492 159.256 17.736 159.269 17.9162C159.271 17.9453 159.258 17.9824 159.272 18.0028C159.405 18.2028 159.379 18.4437 159.445 18.6609C159.531 18.9441 159.58 19.2414 159.694 19.5123C159.927 20.0645 160.193 20.6029 160.543 21.0925C160.683 21.2874 160.842 21.4702 161.006 21.6452C161.188 21.8401 161.38 22.0284 161.581 22.2043C161.924 22.505 162.31 22.7398 162.728 22.9285C163.08 23.0873 163.444 23.1838 163.818 23.2734C164.141 23.3511 164.461 23.386 164.79 23.3895C164.965 23.3913 165.14 23.4392 165.314 23.4307C165.715 23.4111 166.119 23.396 166.514 23.3298C166.868 23.2704 167.222 23.1738 167.556 23.0422C168.086 22.8331 168.579 22.5513 169.019 22.18C169.447 21.8182 169.818 21.4054 170.124 20.9389C170.452 20.4388 170.739 19.9147 170.917 19.3393C171.033 18.9653 171.162 18.5939 171.249 18.2131C171.323 17.8881 171.348 17.5516 171.392 17.2199C171.41 17.0834 171.423 16.9462 171.46 16.7877C171.514 16.7219 171.559 16.6817 171.574 16.6325C171.59 16.5783 171.578 16.5158 171.578 16.457C171.578 11.9686 171.578 7.48015 171.578 2.99173C171.578 2.9329 171.586 2.87166 171.572 2.81615C171.564 2.78271 171.52 2.75819 171.492 2.72967C171.489 2.70973 171.487 2.68979 171.505 2.65492C171.618 2.64032 171.623 2.57666 171.623 2.49387C171.623 2.45965 171.623 2.44009 171.623 2.4033C171.638 2.30758 171.652 2.2291 171.666 2.13759C171.666 2.10711 171.666 2.08966 171.672 2.05751C171.731 1.88716 171.807 1.90324 171.678 1.86845Z" fill="#F2F2F2"/>
<path d="M171.481 2.73074C171.516 2.73899 171.563 2.76355 171.572 2.79705C171.587 2.85265 171.579 2.91399 171.579 2.97292C171.579 7.46881 171.579 11.9647 171.579 16.4606C171.579 16.5196 171.591 16.5821 171.573 16.6364C171.558 16.6857 171.514 16.748 171.461 16.795C171.438 16.5859 171.401 16.3521 171.469 16.1416C171.491 16.0739 171.476 15.9953 171.476 15.9217C171.476 11.5315 171.476 7.14127 171.481 2.73074Z" fill="#F2F2F2"/>
<path d="M171.815 1.43909C171.814 1.52648 171.686 2.33546 171.671 2.44373C171.628 2.46869 171.525 2.43961 171.494 2.44369C171.496 2.37367 171.68 1.60185 171.693 1.50534C171.715 1.4943 171.784 1.45681 171.815 1.43909Z" fill="#F2F2F2"/>
<path d="M171.627 2.26709C171.628 2.58633 171.621 2.88471 171.492 2.8853C171.469 2.73202 171.485 2.56521 171.505 2.33333C171.569 2.25648 171.588 2.26748 171.627 2.26709Z" fill="#F2F2F2"/>
<path d="M171.605 2.49499C171.579 2.50974 171.552 2.50982 171.512 2.50995C171.496 2.49017 171.493 2.47813 171.494 2.44373C171.525 2.42924 171.552 2.42154 171.592 2.42166C171.605 2.44124 171.605 2.46079 171.605 2.49499Z" fill="#F2F2F2"/>
</g>
<defs>
<clipPath id="clip0_1257_4033">
<rect width="178" height="30" fill="white"/>
</clipPath>
</defs>
</svg>
