<svg width="512" height="512" viewBox="0 0 512 512" fill="none" xmlns="http://www.w3.org/2000/svg">
<path d="M402.878 84.0721C409.654 83.5245 416.293 86.1254 421.084 90.9164C425.875 95.7074 428.475 102.346 427.928 109.122C425.19 142.865 416.019 195.498 396.239 245.804C395.007 248.884 392.474 251.211 389.257 252.169L333.887 268.801C331.217 269.622 329.438 272.018 329.438 274.824C329.438 278.314 332.244 281.121 335.735 281.121H362.154C370.367 281.121 375.637 289.881 371.394 296.931C368.656 301.517 365.713 305.965 362.701 310.346C361.333 312.331 359.279 313.768 356.952 314.521L290.083 334.506C287.414 335.328 285.634 337.723 285.634 340.529C285.634 344.02 288.44 346.826 291.931 346.826H302.882C312.875 346.826 317.255 358.735 308.905 364.211C262.363 395.01 214.658 393.847 184.064 385.634C175.372 383.306 167.638 378.858 160.52 373.382L110.419 423.483C104.396 429.506 94.5403 429.506 88.5173 423.483C82.4942 417.46 82.4942 407.604 88.5173 401.581L143.272 346.826L143.614 347.168C144.093 346.279 144.709 345.457 145.462 344.704L252.781 237.317C258.804 231.294 258.804 221.438 252.781 215.415C246.758 209.392 236.902 209.392 230.879 215.415L138.96 307.266C132.869 313.357 122.534 310.277 121.849 301.654C118.906 265.242 128.214 217.4 171.539 174.075C233.891 111.723 345.522 88.7262 402.809 84.0721H402.878Z" fill="#FF0000"/>
</svg>
