<svg width="16" height="16" viewBox="0 0 16 16" fill="none" xmlns="http://www.w3.org/2000/svg">
<path d="M12.6967 2.5023C12.9133 2.4848 13.1256 2.56796 13.2788 2.72116C13.432 2.87437 13.5152 3.08666 13.4977 3.30333C13.4102 4.38231 13.1169 6.06534 12.4844 7.67396C12.445 7.77244 12.364 7.84686 12.2611 7.8775L10.4906 8.40933C10.4052 8.43559 10.3483 8.51219 10.3483 8.60192C10.3483 8.71354 10.438 8.80327 10.5497 8.80327H11.3945C11.6571 8.80327 11.8256 9.08341 11.6899 9.30884C11.6024 9.45547 11.5083 9.59773 11.412 9.7378C11.3682 9.80127 11.3025 9.84723 11.2281 9.87131L9.08986 10.5104C9.00451 10.5366 8.9476 10.6132 8.9476 10.703C8.9476 10.8146 9.03734 10.9043 9.14896 10.9043H9.49913C9.81867 10.9043 9.95874 11.2851 9.69173 11.4602C8.20348 12.4451 6.67803 12.4079 5.69973 12.1453C5.42178 12.0708 5.17446 11.9286 4.94685 11.7535L3.3448 13.3556C3.1522 13.5481 2.83704 13.5481 2.64445 13.3556C2.45185 13.163 2.45185 12.8478 2.64445 12.6552L4.39532 10.9043L4.40627 10.9153C4.42159 10.8868 4.44128 10.8606 4.46536 10.8365L7.89708 7.40257C8.08967 7.20998 8.08967 6.89482 7.89708 6.70222C7.70448 6.50962 7.38932 6.50962 7.19673 6.70222L4.25744 9.63932C4.06266 9.8341 3.73218 9.73561 3.71029 9.45985C3.61618 8.29552 3.91383 6.76569 5.29921 5.38031C7.29303 3.3865 10.8626 2.65113 12.6945 2.5023H12.6967Z" fill="#FF0000"/>
</svg>
