<svg width="2048" height="2048" viewBox="0 0 2048 2048" fill="none" xmlns="http://www.w3.org/2000/svg">
<path d="M1611.51 336.288C1638.61 334.098 1665.17 344.501 1684.33 363.666C1703.5 382.83 1713.9 409.386 1711.71 436.489C1700.76 571.46 1664.08 781.991 1584.95 983.215C1580.03 995.535 1569.9 1004.84 1557.03 1008.68L1335.55 1075.2C1324.87 1078.49 1317.75 1088.07 1317.75 1099.29C1317.75 1113.26 1328.98 1124.48 1342.94 1124.48H1448.62C1481.47 1124.48 1502.55 1159.53 1485.57 1187.72C1474.62 1206.07 1462.85 1223.86 1450.81 1241.38C1445.33 1249.32 1437.12 1255.07 1427.81 1258.08L1160.33 1338.03C1149.65 1341.31 1142.54 1350.89 1142.54 1362.12C1142.54 1376.08 1153.76 1387.3 1167.72 1387.3H1211.53C1251.5 1387.3 1269.02 1434.94 1235.62 1456.84C1049.45 1580.04 858.634 1575.39 736.257 1542.53C701.488 1533.23 670.551 1515.43 642.079 1493.53L441.677 1693.93C417.584 1718.02 378.161 1718.02 354.069 1693.93C329.977 1669.84 329.977 1630.42 354.069 1606.32L573.088 1387.3L574.457 1388.67C576.373 1385.11 578.837 1381.83 581.849 1378.82L1011.13 949.267C1035.22 925.175 1035.22 885.752 1011.13 861.66C987.033 837.568 947.61 837.568 923.518 861.66L555.84 1229.06C531.474 1253.43 490.134 1241.11 487.397 1206.61C475.624 1060.97 512.858 869.599 686.156 696.3C935.564 446.893 1382.09 354.905 1611.24 336.288H1611.51Z" fill="#FF0000"/>
</svg>
