<svg width="32" height="32" viewBox="0 0 32 32" fill="none" xmlns="http://www.w3.org/2000/svg">
<path d="M25.3933 5.00461C25.8267 4.96959 26.2513 5.13592 26.5577 5.44233C26.8641 5.74873 27.0304 6.17332 26.9954 6.60666C26.8203 8.76462 26.2338 12.1307 24.9688 15.3479C24.89 15.5449 24.728 15.6937 24.5223 15.755L20.9811 16.8187C20.8104 16.8712 20.6966 17.0244 20.6966 17.2038C20.6966 17.4271 20.8761 17.6065 21.0993 17.6065H22.7889C23.3142 17.6065 23.6512 18.1668 23.3798 18.6177C23.2047 18.9109 23.0165 19.1955 22.8239 19.4756C22.7364 19.6025 22.6051 19.6945 22.4562 19.7426L18.1797 21.0208C18.009 21.0733 17.8952 21.2265 17.8952 21.4059C17.8952 21.6292 18.0747 21.8087 18.2979 21.8087H18.9983C19.6373 21.8087 19.9175 22.5703 19.3835 22.9205C16.407 24.8902 13.3561 24.8158 11.3995 24.2905C10.8436 24.1417 10.3489 23.8572 9.8937 23.507L6.6896 26.7111C6.3044 27.0963 5.67409 27.0963 5.28889 26.7111C4.9037 26.3259 4.9037 25.6956 5.28889 25.3104L8.79065 21.8087L8.81253 21.8305C8.84317 21.7736 8.88257 21.7211 8.93072 21.673L15.7942 14.8051C16.1793 14.42 16.1793 13.7896 15.7942 13.4044C15.409 13.0192 14.7786 13.0192 14.3935 13.4044L8.51489 19.2786C8.12532 19.6682 7.46436 19.4712 7.42059 18.9197C7.23237 16.591 7.82767 13.5314 10.5984 10.7606C14.5861 6.773 21.7253 5.30226 25.389 5.00461H25.3933Z" fill="#FF0000"/>
</svg>
