<svg width="256" height="256" viewBox="0 0 256 256" fill="none" xmlns="http://www.w3.org/2000/svg">
<path d="M201.439 42.036C204.827 41.7623 208.146 43.0627 210.542 45.4582C212.937 47.8537 214.238 51.1732 213.964 54.5612C212.595 71.4325 208.009 97.7489 198.119 122.902C197.503 124.442 196.237 125.605 194.629 126.085L166.943 134.4C165.609 134.811 164.719 136.009 164.719 137.412C164.719 139.157 166.122 140.56 167.867 140.56H181.077C185.184 140.56 187.819 144.941 185.697 148.465C184.328 150.758 182.856 152.983 181.351 155.173C180.666 156.165 179.64 156.884 178.476 157.26L145.041 167.253C143.707 167.664 142.817 168.862 142.817 170.265C142.817 172.01 144.22 173.413 145.965 173.413H151.441C156.437 173.413 158.628 179.368 154.452 182.105C131.182 197.505 107.329 196.923 92.0321 192.817C87.686 191.653 83.8189 189.429 80.2598 186.691L55.2096 211.741C52.1981 214.753 47.2701 214.753 44.2586 211.741C41.2471 208.73 41.2471 203.802 44.2586 200.79L71.636 173.413L71.8071 173.584C72.0466 173.139 72.3546 172.729 72.7311 172.352L126.391 118.658C129.402 115.647 129.402 110.719 126.391 107.707C123.379 104.696 118.451 104.696 115.44 107.707L69.48 153.633C66.4343 156.679 61.2668 155.139 60.9246 150.827C59.4531 132.621 64.1072 108.7 85.7695 87.0376C116.945 55.8616 172.761 44.3631 201.405 42.036H201.439Z" fill="#FF0000"/>
</svg>
