<svg width="64" height="64" viewBox="0 0 64 64" fill="none" xmlns="http://www.w3.org/2000/svg">
<path d="M50.3597 10.509C51.2067 10.4406 52.0366 10.7657 52.6354 11.3645C53.2343 11.9634 53.5594 12.7933 53.491 13.6403C53.1488 17.8581 52.0023 24.4372 49.5298 30.7255C49.3758 31.1105 49.0593 31.4014 48.6572 31.5211L41.7358 33.6001C41.4022 33.7028 41.1797 34.0022 41.1797 34.353C41.1797 34.7893 41.5305 35.1401 41.9668 35.1401H45.2692C46.2959 35.1401 46.9546 36.2352 46.4242 37.1164C46.082 37.6896 45.7141 38.2457 45.3377 38.7932C45.1666 39.0413 44.9099 39.221 44.619 39.3151L36.2604 41.8133C35.9267 41.916 35.7043 42.2154 35.7043 42.5662C35.7043 43.0025 36.055 43.3533 36.4914 43.3533H37.8602C39.1093 43.3533 39.6569 44.8419 38.6131 45.5263C32.7954 49.3763 26.8323 49.2308 23.008 48.2042C21.9215 47.9133 20.9547 47.3572 20.065 46.6728L13.8024 52.9353C13.0495 53.6882 11.8175 53.6882 11.0647 52.9353C10.3118 52.1825 10.3118 50.9505 11.0647 50.1976L17.909 43.3533L17.9518 43.396C18.0117 43.2848 18.0887 43.1822 18.1828 43.0881L31.5977 29.6646C32.3505 28.9117 32.3505 27.6797 31.5977 26.9269C30.8448 26.174 29.6128 26.174 28.8599 26.9269L17.37 38.4082C16.6086 39.1697 15.3167 38.7847 15.2311 37.7067C14.8633 33.1552 16.0268 27.175 21.4424 21.7594C29.2364 13.9654 43.1903 11.0908 50.3512 10.509H50.3597Z" fill="#FF0000"/>
</svg>
