<svg width="1024" height="1024" viewBox="0 0 1024 1024" fill="none" xmlns="http://www.w3.org/2000/svg">
<path d="M805.755 168.144C819.307 167.049 832.585 172.251 842.167 181.833C851.749 191.415 856.951 204.693 855.856 218.245C850.38 285.73 832.038 390.996 792.477 491.607C790.013 497.767 784.949 502.422 778.515 504.338L667.773 537.601C662.435 539.244 658.876 544.035 658.876 549.647C658.876 556.629 664.488 562.241 671.469 562.241H724.308C740.734 562.241 751.274 579.763 742.787 593.862C737.312 603.033 731.426 611.931 725.403 620.692C722.665 624.661 718.558 627.536 713.904 629.042L580.166 669.013C574.827 670.655 571.268 675.446 571.268 681.059C571.268 688.04 576.881 693.652 583.862 693.652H605.764C625.749 693.652 634.51 717.471 617.81 728.422C524.727 790.021 429.317 787.694 368.128 771.267C350.744 766.613 335.276 757.715 321.039 746.764L220.838 846.965C208.792 859.012 189.081 859.012 177.035 846.965C164.988 834.919 164.988 815.208 177.035 803.162L286.544 693.652L287.228 694.337C288.187 692.557 289.419 690.915 290.924 689.409L505.563 474.634C517.609 462.588 517.609 442.876 505.563 430.83C493.517 418.784 473.805 418.784 461.759 430.83L277.92 614.532C265.737 626.715 245.067 620.555 243.698 603.307C237.812 530.483 256.429 434.8 343.078 348.15C467.782 223.446 691.044 177.452 805.618 168.144H805.755Z" fill="#FF0000"/>
</svg>
