<svg width="128" height="128" viewBox="0 0 128 128" fill="none" xmlns="http://www.w3.org/2000/svg">
<path d="M100.292 21.5178C101.967 21.3825 103.607 22.0252 104.791 23.209C105.975 24.3928 106.617 26.0333 106.482 27.7076C105.806 36.0451 103.54 49.0503 98.652 61.4806C98.3476 62.2416 97.7218 62.8166 96.927 63.0534L83.2453 67.163C82.5857 67.3659 82.146 67.9578 82.146 68.6512C82.146 69.5137 82.8394 70.2071 83.7019 70.2071H90.2299C92.2593 70.2071 93.5615 72.3718 92.513 74.1138C91.8365 75.2468 91.1093 76.3461 90.3652 77.4285C90.0269 77.9189 89.5196 78.2741 88.9446 78.4601L72.4217 83.3984C71.7621 83.6013 71.3224 84.1932 71.3224 84.8866C71.3224 85.7491 72.0158 86.4425 72.8783 86.4425H75.5842C78.0533 86.4425 79.1357 89.3852 77.0724 90.7381C65.5724 98.3485 53.7848 98.061 46.2252 96.0316C44.0774 95.4566 42.1663 94.3573 40.4075 93.0043L28.028 105.384C26.5397 106.872 24.1044 106.872 22.6162 105.384C21.1279 103.896 21.1279 101.46 22.6162 99.972L36.1457 86.4425L36.2302 86.5271C36.3486 86.3072 36.5008 86.1043 36.6869 85.9182L63.2047 59.3835C64.6929 57.8953 64.6929 55.46 63.2047 53.9717C61.7164 52.4835 59.2811 52.4835 57.7929 53.9717L35.0802 76.6674C33.5751 78.1726 31.0214 77.4116 30.8523 75.2807C30.1251 66.2836 32.4251 54.4622 43.1303 43.7569C58.537 28.3502 86.1203 22.6678 100.276 21.5178H100.292Z" fill="#FF0000"/>
</svg>
