<svg width="192" height="192" viewBox="0 0 192 192" fill="none" xmlns="http://www.w3.org/2000/svg">
<path d="M151.079 31.527C153.62 31.3217 156.11 32.297 157.906 34.0936C159.703 35.8903 160.678 38.3799 160.473 40.9209C159.446 53.5743 156.007 73.3117 148.589 92.1764C148.127 93.3314 147.178 94.204 145.972 94.5634L125.208 100.8C124.207 101.108 123.539 102.007 123.539 103.059C123.539 104.368 124.592 105.42 125.901 105.42H135.808C138.888 105.42 140.864 108.705 139.273 111.349C138.246 113.069 137.142 114.737 136.013 116.38C135.5 117.124 134.73 117.663 133.857 117.945L108.781 125.44C107.78 125.748 107.113 126.646 107.113 127.699C107.113 129.007 108.165 130.06 109.474 130.06H113.581C117.328 130.06 118.971 134.526 115.839 136.579C98.3863 148.129 80.4969 147.693 69.0241 144.613C65.7645 143.74 62.8642 142.072 60.1949 140.018L41.4072 158.806C39.1485 161.065 35.4526 161.065 33.194 158.806C30.9353 156.547 30.9353 152.851 33.194 150.593L53.727 130.06L53.8553 130.188C54.035 129.854 54.266 129.546 54.5483 129.264L94.793 88.9938C97.0516 86.7352 97.0516 83.0392 94.793 80.7806C92.5344 78.522 88.8384 78.522 86.5798 80.7806L52.11 115.225C49.8257 117.509 45.9501 116.354 45.6934 113.12C44.5898 99.4656 48.0804 81.5249 64.3272 65.2782C87.7091 41.8962 129.571 33.2723 151.053 31.527H151.079Z" fill="#FF0000"/>
</svg>
